<?xml version="1.0" encoding="UTF-8" standalone="no"?>
<!-- Created with Inkscape (http://www.inkscape.org/) -->

<svg
   xmlns:dc="http://purl.org/dc/elements/1.1/"
   xmlns:cc="http://creativecommons.org/ns#"
   xmlns:rdf="http://www.w3.org/1999/02/22-rdf-syntax-ns#"
   xmlns:svg="http://www.w3.org/2000/svg"
   xmlns="http://www.w3.org/2000/svg"
   xmlns:sodipodi="http://sodipodi.sourceforge.net/DTD/sodipodi-0.dtd"
   xmlns:inkscape="http://www.inkscape.org/namespaces/inkscape"
   width="293.72998"
   height="108.526"
   id="svg2"
   version="1.1"
   inkscape:version="0.48.3.1 r9886"
   sodipodi:docname="category_law_1.svg">
  <defs
     id="defs4">
    <marker
       inkscape:stockid="Arrow1Mend"
       orient="auto"
       refY="0"
       refX="0"
       id="Arrow1Mend"
       style="overflow:visible">
      <path
         id="path3832"
         d="M 0,0 5,-5 -12.5,0 5,5 0,0 z"
         style="fill-rule:evenodd;stroke:#000000;stroke-width:1pt"
         transform="matrix(-0.4,0,0,-0.4,-4,0)"
         inkscape:connector-curvature="0" />
    </marker>
    <inkscape:path-effect
       effect="spiro"
       id="path-effect3793"
       is_visible="true" />
    <marker
       inkscape:stockid="Arrow1Mend"
       orient="auto"
       refY="0"
       refX="0"
       id="Arrow1Mend-1"
       style="overflow:visible">
      <path
         id="path3832-6"
         d="M 0,0 5,-5 -12.5,0 5,5 0,0 z"
         style="fill-rule:evenodd;stroke:#000000;stroke-width:1pt"
         transform="matrix(-0.4,0,0,-0.4,-4,0)"
         inkscape:connector-curvature="0" />
    </marker>
    <inkscape:path-effect
       effect="spiro"
       id="path-effect3793-3"
       is_visible="true" />
    <marker
       inkscape:stockid="Arrow1Mend"
       orient="auto"
       refY="0"
       refX="0"
       id="Arrow1Mend-9"
       style="overflow:visible">
      <path
         id="path3832-5"
         d="M 0,0 5,-5 -12.5,0 5,5 0,0 z"
         style="fill-rule:evenodd;stroke:#000000;stroke-width:1pt"
         transform="matrix(-0.4,0,0,-0.4,-4,0)"
         inkscape:connector-curvature="0" />
    </marker>
    <inkscape:path-effect
       effect="spiro"
       id="path-effect3793-3-3"
       is_visible="true" />
  </defs>
  <sodipodi:namedview
     id="base"
     pagecolor="#ffffff"
     bordercolor="#666666"
     borderopacity="1.0"
     inkscape:pageopacity="0.0"
     inkscape:pageshadow="2"
     inkscape:zoom="2.8"
     inkscape:cx="92.713822"
     inkscape:cy="105.81312"
     inkscape:document-units="px"
     inkscape:current-layer="layer1"
     showgrid="true"
     showguides="true"
     inkscape:guide-bbox="true"
     inkscape:window-width="1914"
     inkscape:window-height="1060"
     inkscape:window-x="0"
     inkscape:window-y="14"
     inkscape:window-maximized="0"
     fit-margin-top="20"
     fit-margin-bottom="20"
     fit-margin-right="10"
     fit-margin-left="10">
    <inkscape:grid
       type="xygrid"
       id="grid3043"
       empspacing="5"
       visible="true"
       enabled="true"
       snapvisiblegridlinesonly="true"
       originx="3.2092997px"
       originy="-95.599997px" />
  </sodipodi:namedview>
  <metadata
     id="metadata7">
    <rdf:RDF>
      <cc:Work
         rdf:about="">
        <dc:format>image/svg+xml</dc:format>
        <dc:type
           rdf:resource="http://purl.org/dc/dcmitype/StillImage" />
        <dc:title />
      </cc:Work>
    </rdf:RDF>
  </metadata>
  <g
     inkscape:label="Layer 1"
     inkscape:groupmode="layer"
     id="layer1"
     transform="translate(3.2092997,-848.23618)">
    <g
       id="g3334"
       transform="translate(0,0.99628373)">
      <path
         transform="matrix(-1.3632133,0,0,1.3632133,199.01596,793.61257)"
         d="m 101.78571,77.678574 c 0,5.818714 -4.716996,10.535714 -10.53571,10.535714 -5.818714,0 -10.535714,-4.717 -10.535714,-10.535714 0,-5.818715 4.717,-10.535715 10.535714,-10.535715 5.818714,0 10.53571,4.717 10.53571,10.535715 z"
         sodipodi:ry="10.535714"
         sodipodi:rx="10.535714"
         sodipodi:cy="77.678574"
         sodipodi:cx="91.25"
         id="path3755"
         style="color:#000000;fill:none;stroke:#000000;stroke-width:2.5;stroke-linecap:butt;stroke-linejoin:miter;stroke-miterlimit:4;stroke-opacity:1;stroke-dasharray:none;stroke-dashoffset:0;marker:none;visibility:visible;display:inline;overflow:visible;enable-background:accumulate"
         sodipodi:type="arc" />
      <text
         transform="scale(-1,1)"
         sodipodi:linespacing="125%"
         id="text3134"
         y="932.58289"
         x="-80.479889"
         style="font-size:14px;font-style:normal;font-variant:normal;font-weight:300;font-stretch:normal;line-height:125%;letter-spacing:0px;word-spacing:0px;fill:#000000;fill-opacity:1;stroke:none;font-family:Gotham;-inkscape-font-specification:Gotham Light"
         xml:space="preserve"><tspan
           y="932.58289"
           x="-80.479889"
           id="tspan3136"
           sodipodi:role="line">A</tspan></text>
      <path
         sodipodi:nodetypes="ccc"
         inkscape:connector-curvature="0"
         d="m 59.662142,881.58129 c -3.855326,-4.6975 -9.200785,-8.15309 -15.066922,-9.74006 -5.866136,-1.58697 -12.2247,-1.29768 -17.922498,0.81541 -5.697798,2.11308 -10.707391,6.03979 -14.120236,11.06796 -3.4128442,5.02817 -5.212505,11.1336 -5.0725943,17.209 0.1393985,6.05316 2.2031251,12.04763 5.8194883,16.90376 3.616363,4.85614 8.768199,8.55089 14.527627,10.41882 5.759428,1.86792 12.099111,1.90014 17.877231,0.0909 5.778119,-1.80928 10.967249,-5.45147 14.632793,-10.27059"
         id="path3791"
         inkscape:original-d="M 59.662142,881.58129 C 49.980952,867.97331 22.123358,903.21986 7.4798917,900.9336 -20.734669,895.0823 82.234101,908.45956 60.337031,918.07646"
         inkscape:path-effect="#path-effect3793-3"
         style="fill:none;stroke:#000000;stroke-width:1.3632133px;stroke-linecap:butt;stroke-linejoin:miter;stroke-opacity:1;marker-end:url(#Arrow1Mend)" />
    </g>
    <g
       id="g3328"
       transform="matrix(-1,0,0,1,477.14286,13.571419)">
      <path
         transform="matrix(-1.3632133,0,0,1.3632133,388.84744,781.03743)"
         d="m 101.78571,77.678574 c 0,5.818714 -4.716996,10.535714 -10.53571,10.535714 -5.818714,0 -10.535714,-4.717 -10.535714,-10.535714 0,-5.818715 4.717,-10.535715 10.535714,-10.535715 5.818714,0 10.53571,4.717 10.53571,10.535715 z"
         sodipodi:ry="10.535714"
         sodipodi:rx="10.535714"
         sodipodi:cy="77.678574"
         sodipodi:cx="91.25"
         id="path3755-5"
         style="color:#000000;fill:none;stroke:#000000;stroke-width:2.5;stroke-linecap:butt;stroke-linejoin:miter;stroke-miterlimit:4;stroke-opacity:1;stroke-dasharray:none;stroke-dashoffset:0;marker:none;visibility:visible;display:inline;overflow:visible;enable-background:accumulate"
         sodipodi:type="arc" />
      <text
         transform="scale(-1,1)"
         sodipodi:linespacing="125%"
         id="text3134-1"
         y="920.00775"
         x="-270.31137"
         style="font-size:14px;font-style:normal;font-variant:normal;font-weight:300;font-stretch:normal;line-height:125%;letter-spacing:0px;word-spacing:0px;fill:#000000;fill-opacity:1;stroke:none;font-family:Gotham;-inkscape-font-specification:Gotham Light"
         xml:space="preserve"><tspan
           y="920.00775"
           x="-270.31137"
           id="tspan3136-1"
           sodipodi:role="line">B</tspan></text>
      <path
         sodipodi:nodetypes="ccc"
         inkscape:connector-curvature="0"
         d="m 249.49363,869.00615 c -3.85533,-4.6975 -9.20079,-8.15309 -15.06692,-9.74006 -5.86614,-1.58697 -12.2247,-1.29768 -17.9225,0.81541 -5.6978,2.11308 -10.70739,6.03979 -14.12024,11.06796 -3.41284,5.02817 -5.2125,11.1336 -5.07259,17.209 0.1394,6.05316 2.20312,12.04763 5.81949,16.90376 3.61636,4.85614 8.7682,8.55089 14.52763,10.41882 5.75942,1.86792 12.09911,1.90015 17.87723,0.0909 5.77812,-1.80928 10.96725,-5.45147 14.63279,-10.27059"
         id="path3791-0"
         inkscape:original-d="m 249.49363,869.00615 c -9.68119,-13.60798 -37.53879,21.63857 -52.18225,19.35231 -28.21456,-5.8513 74.75421,7.52596 52.85714,17.14286"
         inkscape:path-effect="#path-effect3793-3-3"
         style="fill:none;stroke:#000000;stroke-width:1.3632133px;stroke-linecap:butt;stroke-linejoin:miter;stroke-opacity:1;marker-end:url(#Arrow1Mend)" />
    </g>
    <path
       style="fill:none;stroke:#000000;stroke-width:1px;stroke-linecap:butt;stroke-linejoin:miter;stroke-opacity:1;marker-end:url(#Arrow1Mend-9)"
       d="m 100,150 90,0"
       id="path3340"
       inkscape:connector-curvature="0"
       transform="translate(0,752.36218)" />
    <text
       xml:space="preserve"
       style="font-size:14px;font-style:normal;font-variant:normal;font-weight:300;font-stretch:normal;line-height:125%;letter-spacing:0px;word-spacing:0px;fill:#000000;fill-opacity:1;stroke:none;font-family:Gotham;-inkscape-font-specification:Gotham Light"
       x="110"
       y="884.36218"
       id="text4314"
       sodipodi:linespacing="125%"><tspan
         sodipodi:role="line"
         id="tspan4316"
         x="110"
         y="884.36218"
         style="font-size:22px">f ∘ id<tspan
   style="font-size:65.00091553%;baseline-shift:sub"
   id="tspan4376">A</tspan></tspan></text>
    <text
       xml:space="preserve"
       style="font-size:14px;font-style:normal;font-variant:normal;font-weight:300;font-stretch:normal;line-height:125%;letter-spacing:0px;word-spacing:0px;fill:#000000;fill-opacity:1;stroke:none;font-family:Gotham;-inkscape-font-specification:Gotham Light"
       x="110"
       y="932.36218"
       id="text4314-6"
       sodipodi:linespacing="125%"><tspan
         sodipodi:role="line"
         id="tspan4316-4"
         x="110"
         y="932.36218"
         style="font-size:22px">id<tspan
   style="font-size:65.00091553%;baseline-shift:sub"
   id="tspan4374">B </tspan>∘ f</tspan></text>
  </g>
</svg>
