<?xml version="1.0" encoding="UTF-8" standalone="no"?>
<!-- Created with Inkscape (http://www.inkscape.org/) -->

<svg
   xmlns:dc="http://purl.org/dc/elements/1.1/"
   xmlns:cc="http://creativecommons.org/ns#"
   xmlns:rdf="http://www.w3.org/1999/02/22-rdf-syntax-ns#"
   xmlns:svg="http://www.w3.org/2000/svg"
   xmlns="http://www.w3.org/2000/svg"
   xmlns:sodipodi="http://sodipodi.sourceforge.net/DTD/sodipodi-0.dtd"
   xmlns:inkscape="http://www.inkscape.org/namespaces/inkscape"
   width="300"
   height="250"
   id="svg2"
   version="1.1"
   inkscape:version="0.48.3.1 r9886">
  <defs
     id="defs4">
    <inkscape:path-effect
       effect="spiro"
       id="path-effect7326"
       is_visible="true" />
    <marker
       inkscape:stockid="Arrow2Mstart"
       orient="auto"
       refY="0"
       refX="0"
       id="Arrow2Mstart"
       style="overflow:visible">
      <path
         id="path3847"
         style="fill-rule:evenodd;stroke-width:0.625;stroke-linejoin:round"
         d="M 8.7185878,4.0337352 -2.2072895,0.01601326 8.7185884,-4.0017078 c -1.7454984,2.3720609 -1.7354408,5.6174519 -6e-7,8.035443 z"
         transform="scale(0.6,0.6)"
         inkscape:connector-curvature="0" />
    </marker>
    <marker
       inkscape:stockid="Arrow2Mend"
       orient="auto"
       refY="0"
       refX="0"
       id="Arrow2Mend"
       style="overflow:visible">
      <path
         id="path3850"
         style="fill-rule:evenodd;stroke-width:0.625;stroke-linejoin:round"
         d="M 8.7185878,4.0337352 -2.2072895,0.01601326 8.7185884,-4.0017078 c -1.7454984,2.3720609 -1.7354408,5.6174519 -6e-7,8.035443 z"
         transform="scale(-0.6,-0.6)"
         inkscape:connector-curvature="0" />
    </marker>
    <marker
       inkscape:stockid="Arrow1Send"
       orient="auto"
       refY="0"
       refX="0"
       id="Arrow1Send"
       style="overflow:visible">
      <path
         id="path3838"
         d="M 0,0 5,-5 -12.5,0 5,5 0,0 z"
         style="fill-rule:evenodd;stroke:#000000;stroke-width:1pt"
         transform="matrix(-0.2,0,0,-0.2,-1.2,0)"
         inkscape:connector-curvature="0" />
    </marker>
    <marker
       inkscape:stockid="Arrow1Mstart"
       orient="auto"
       refY="0"
       refX="0"
       id="Arrow1Mstart"
       style="overflow:visible">
      <path
         id="path3829"
         d="M 0,0 5,-5 -12.5,0 5,5 0,0 z"
         style="fill-rule:evenodd;stroke:#000000;stroke-width:1pt"
         transform="matrix(0.4,0,0,0.4,4,0)"
         inkscape:connector-curvature="0" />
    </marker>
    <marker
       inkscape:stockid="Arrow1Mend"
       orient="auto"
       refY="0"
       refX="0"
       id="Arrow1Mend"
       style="overflow:visible">
      <path
         id="path3832"
         d="M 0,0 5,-5 -12.5,0 5,5 0,0 z"
         style="fill-rule:evenodd;stroke:#000000;stroke-width:1pt"
         transform="matrix(-0.4,0,0,-0.4,-4,0)"
         inkscape:connector-curvature="0" />
    </marker>
    <inkscape:path-effect
       effect="spiro"
       id="path-effect3793"
       is_visible="true" />
    <inkscape:path-effect
       effect="spiro"
       id="path-effect3793-3"
       is_visible="true" />
    <marker
       inkscape:stockid="Arrow1Mend"
       orient="auto"
       refY="0"
       refX="0"
       id="Arrow1Mend-6"
       style="overflow:visible">
      <path
         id="path3832-7"
         d="M 0,0 5,-5 -12.5,0 5,5 0,0 z"
         style="fill-rule:evenodd;stroke:#000000;stroke-width:1pt"
         transform="matrix(-0.4,0,0,-0.4,-4,0)"
         inkscape:connector-curvature="0" />
    </marker>
    <inkscape:path-effect
       effect="spiro"
       id="path-effect3793-4"
       is_visible="true" />
    <marker
       inkscape:stockid="Arrow1Mend"
       orient="auto"
       refY="0"
       refX="0"
       id="Arrow1Mend-2"
       style="overflow:visible">
      <path
         id="path3832-5"
         d="M 0,0 5,-5 -12.5,0 5,5 0,0 z"
         style="fill-rule:evenodd;stroke:#000000;stroke-width:1pt"
         transform="matrix(-0.4,0,0,-0.4,-4,0)"
         inkscape:connector-curvature="0" />
    </marker>
    <inkscape:path-effect
       effect="spiro"
       id="path-effect3793-4-6"
       is_visible="true" />
    <marker
       inkscape:stockid="Arrow1Mend"
       orient="auto"
       refY="0"
       refX="0"
       id="Arrow1Mend-60"
       style="overflow:visible">
      <path
         id="path3832-4"
         d="M 0,0 5,-5 -12.5,0 5,5 0,0 z"
         style="fill-rule:evenodd;stroke:#000000;stroke-width:1pt"
         transform="matrix(-0.4,0,0,-0.4,-4,0)"
         inkscape:connector-curvature="0" />
    </marker>
    <inkscape:path-effect
       effect="spiro"
       id="path-effect3793-4-2"
       is_visible="true" />
  </defs>
  <sodipodi:namedview
     id="base"
     pagecolor="#ffffff"
     bordercolor="#666666"
     borderopacity="1.0"
     inkscape:pageopacity="0.0"
     inkscape:pageshadow="2"
     inkscape:zoom="1.979899"
     inkscape:cx="5.3684987"
     inkscape:cy="63.722071"
     inkscape:document-units="px"
     inkscape:current-layer="layer1"
     showgrid="true"
     fit-margin-top="20"
     fit-margin-left="20"
     fit-margin-right="20"
     fit-margin-bottom="20"
     inkscape:window-width="1914"
     inkscape:window-height="1060"
     inkscape:window-x="0"
     inkscape:window-y="14"
     inkscape:window-maximized="0">
    <inkscape:grid
       type="xygrid"
       id="grid7185"
       empspacing="5"
       visible="true"
       enabled="true"
       snapvisiblegridlinesonly="true" />
  </sodipodi:namedview>
  <metadata
     id="metadata7">
    <rdf:RDF>
      <cc:Work
         rdf:about="">
        <dc:format>image/svg+xml</dc:format>
        <dc:type
           rdf:resource="http://purl.org/dc/dcmitype/StillImage" />
        <dc:title></dc:title>
      </cc:Work>
    </rdf:RDF>
  </metadata>
  <g
     inkscape:label="Layer 1"
     inkscape:groupmode="layer"
     id="layer1"
     transform="translate(-35.897321,-672.01743)">
    <path
       sodipodi:type="arc"
       style="color:#000000;fill:none;stroke:#000000;stroke-width:2.5;stroke-linecap:butt;stroke-linejoin:miter;stroke-miterlimit:4;stroke-opacity:1;stroke-dasharray:none;stroke-dashoffset:0;marker:none;visibility:visible;display:inline;overflow:visible;enable-background:accumulate"
       id="path2985"
       sodipodi:cx="127.5"
       sodipodi:cy="83.571426"
       sodipodi:rx="96.785713"
       sodipodi:ry="50.714287"
       d="m 224.28571,83.571426 a 96.785713,50.714287 0 1 1 -193.571423,0 96.785713,50.714287 0 1 1 193.571423,0 z"
       transform="matrix(1.3632133,0,0,1.3632133,12.087625,683.09175)" />
    <path
       sodipodi:type="arc"
       style="color:#000000;fill:none;stroke:#000000;stroke-width:2.5;stroke-linecap:butt;stroke-linejoin:miter;stroke-miterlimit:4;stroke-opacity:1;stroke-dasharray:none;stroke-dashoffset:0;marker:none;visibility:visible;display:inline;overflow:visible;enable-background:accumulate"
       id="path3755"
       sodipodi:cx="91.25"
       sodipodi:cy="77.678574"
       sodipodi:rx="10.535714"
       sodipodi:ry="10.535714"
       d="m 101.78571,77.678574 a 10.535714,10.535714 0 1 1 -21.071424,0 10.535714,10.535714 0 1 1 21.071424,0 z"
       transform="matrix(1.3632133,0,0,1.3632133,7.1416817,701.12497)" />
    <path
       sodipodi:type="arc"
       style="color:#000000;fill:none;stroke:#000000;stroke-width:2.5;stroke-linecap:butt;stroke-linejoin:miter;stroke-miterlimit:4;stroke-opacity:1;stroke-dasharray:none;stroke-dashoffset:0;marker:none;visibility:visible;display:inline;overflow:visible;enable-background:accumulate"
       id="path3755-7"
       sodipodi:cx="91.25"
       sodipodi:cy="77.678574"
       sodipodi:rx="10.535714"
       sodipodi:ry="10.535714"
       d="m 101.78571,77.678574 a 10.535714,10.535714 0 1 1 -21.071424,0 10.535714,10.535714 0 1 1 21.071424,0 z"
       transform="matrix(1.3632133,0,0,1.3632133,82.141682,656.12497)" />
    <path
       sodipodi:type="arc"
       style="color:#000000;fill:none;stroke:#000000;stroke-width:2.5;stroke-linecap:butt;stroke-linejoin:miter;stroke-miterlimit:4;stroke-opacity:1;stroke-dasharray:none;stroke-dashoffset:0;marker:none;visibility:visible;display:inline;overflow:visible;enable-background:accumulate"
       id="path3755-7-9"
       sodipodi:cx="91.25"
       sodipodi:cy="77.678574"
       sodipodi:rx="10.535714"
       sodipodi:ry="10.535714"
       d="m 101.78571,77.678574 a 10.535714,10.535714 0 1 1 -21.071424,0 10.535714,10.535714 0 1 1 21.071424,0 z"
       transform="matrix(1.3632133,0,0,1.3632133,86.504107,726.76254)" />
    <path
       style="fill:none;stroke:#000000;stroke-width:1;stroke-linecap:butt;stroke-linejoin:miter;stroke-miterlimit:4;stroke-opacity:1;stroke-dasharray:none;marker-end:url(#Arrow1Mend)"
       inkscape:path-effect="#path-effect3793-4"
       inkscape:original-d="m 120.89732,787.01743 c -6.59997,-9.27698 -28.24843,0.49058 -38.23134,-1.06804 -19.234758,-3.98902 43.82319,27.60692 28.89527,34.16306"
       id="path3791"
       d="m 120.89732,787.01743 c -4.02858,-6.34278 -11.32078,-10.48355 -18.83186,-10.69338 -7.511075,-0.20983 -15.023076,3.51736 -19.39948,9.62534 -2.964849,4.13793 -4.50316,9.27836 -4.298744,14.36471 0.204417,5.08636 2.150282,10.08676 5.437633,13.97342 3.287351,3.88665 7.895593,6.63521 12.877529,7.68071 4.981932,1.04551 10.306352,0.38141 14.878852,-1.85578"
       inkscape:connector-curvature="0"
       sodipodi:nodetypes="ccc" />
    <path
       style="fill:none;stroke:#000000;stroke-width:1px;stroke-linecap:butt;stroke-linejoin:miter;stroke-opacity:1;marker-start:url(#Arrow2Mstart)"
       d="m 115,125 40,-25"
       id="path7429"
       inkscape:connector-curvature="0"
       transform="translate(35.897321,672.01743)" />
    <path
       style="fill:none;stroke:#000000;stroke-width:1;stroke-linecap:butt;stroke-linejoin:miter;stroke-miterlimit:4;stroke-opacity:1;stroke-dasharray:none;marker-end:url(#Arrow1Mend)"
       inkscape:path-effect="#path-effect3793-4-2"
       inkscape:original-d="m 213.80487,779.28752 c 6.59997,9.27698 28.24843,-0.49058 38.23134,1.06804 19.23476,3.98902 -43.82319,-27.60692 -28.89527,-34.16306"
       id="path3791-5"
       d="m 213.80487,779.28752 c 4.02858,6.34278 11.32078,10.48355 18.83186,10.69338 7.51108,0.20983 15.02308,-3.51736 19.39948,-9.62534 2.96485,-4.13793 4.50316,-9.27836 4.29874,-14.36471 -0.20441,-5.08636 -2.15028,-10.08676 -5.43763,-13.97342 -3.28735,-3.88665 -7.89559,-6.63521 -12.87753,-7.68071 -4.98193,-1.04551 -10.30635,-0.38141 -14.87885,1.85578"
       inkscape:connector-curvature="0"
       sodipodi:nodetypes="ccc" />
    <path
       style="fill:none;stroke:#000000;stroke-width:1px;stroke-linecap:butt;stroke-linejoin:miter;stroke-opacity:1;marker-start:url(#Arrow2Mstart)"
       d="m 170,110 0,30"
       id="path7458"
       inkscape:connector-curvature="0"
       transform="translate(35.897321,672.01743)" />
    <path
       style="fill:none;stroke:#000000;stroke-width:1px;stroke-linecap:butt;stroke-linejoin:miter;stroke-opacity:1;marker-start:url(#Arrow1Mstart)"
       d="m 115,145 40,15"
       id="path8244"
       inkscape:connector-curvature="0"
       transform="translate(35.897321,672.01743)" />
  </g>
</svg>
