<?xml version="1.0" encoding="UTF-8" standalone="no"?>
<!-- Created with Inkscape (http://www.inkscape.org/) -->

<svg
   xmlns:dc="http://purl.org/dc/elements/1.1/"
   xmlns:cc="http://creativecommons.org/ns#"
   xmlns:rdf="http://www.w3.org/1999/02/22-rdf-syntax-ns#"
   xmlns:svg="http://www.w3.org/2000/svg"
   xmlns="http://www.w3.org/2000/svg"
   xmlns:sodipodi="http://sodipodi.sourceforge.net/DTD/sodipodi-0.dtd"
   xmlns:inkscape="http://www.inkscape.org/namespaces/inkscape"
   width="300"
   height="250"
   id="svg2"
   version="1.1"
   inkscape:version="0.48.3.1 r9886"
   sodipodi:docname="two.svg">
  <defs
     id="defs4">
    <marker
       inkscape:stockid="Arrow2Mstart"
       orient="auto"
       refY="0"
       refX="0"
       id="Arrow2Mstart"
       style="overflow:visible">
      <path
         id="path3847"
         style="fill-rule:evenodd;stroke-width:0.625;stroke-linejoin:round"
         d="M 8.7185878,4.0337352 -2.2072895,0.01601326 8.7185884,-4.0017078 c -1.7454984,2.3720609 -1.7354408,5.6174519 -6e-7,8.035443 z"
         transform="scale(0.6,0.6)"
         inkscape:connector-curvature="0" />
    </marker>
    <marker
       inkscape:stockid="Arrow2Mend"
       orient="auto"
       refY="0"
       refX="0"
       id="Arrow2Mend"
       style="overflow:visible">
      <path
         id="path3850"
         style="fill-rule:evenodd;stroke-width:0.625;stroke-linejoin:round"
         d="M 8.7185878,4.0337352 -2.2072895,0.01601326 8.7185884,-4.0017078 c -1.7454984,2.3720609 -1.7354408,5.6174519 -6e-7,8.035443 z"
         transform="scale(-0.6,-0.6)"
         inkscape:connector-curvature="0" />
    </marker>
    <marker
       inkscape:stockid="Arrow1Send"
       orient="auto"
       refY="0"
       refX="0"
       id="Arrow1Send"
       style="overflow:visible">
      <path
         id="path3838"
         d="M 0,0 5,-5 -12.5,0 5,5 0,0 z"
         style="fill-rule:evenodd;stroke:#000000;stroke-width:1pt"
         transform="matrix(-0.2,0,0,-0.2,-1.2,0)"
         inkscape:connector-curvature="0" />
    </marker>
    <marker
       inkscape:stockid="Arrow1Mstart"
       orient="auto"
       refY="0"
       refX="0"
       id="Arrow1Mstart"
       style="overflow:visible">
      <path
         id="path3829"
         d="M 0,0 5,-5 -12.5,0 5,5 0,0 z"
         style="fill-rule:evenodd;stroke:#000000;stroke-width:1pt"
         transform="matrix(0.4,0,0,0.4,4,0)"
         inkscape:connector-curvature="0" />
    </marker>
    <marker
       inkscape:stockid="Arrow1Mend"
       orient="auto"
       refY="0"
       refX="0"
       id="Arrow1Mend"
       style="overflow:visible">
      <path
         id="path3832"
         d="M 0,0 5,-5 -12.5,0 5,5 0,0 z"
         style="fill-rule:evenodd;stroke:#000000;stroke-width:1pt"
         transform="matrix(-0.4,0,0,-0.4,-4,0)"
         inkscape:connector-curvature="0" />
    </marker>
    <inkscape:path-effect
       effect="spiro"
       id="path-effect3793"
       is_visible="true" />
    <inkscape:path-effect
       effect="spiro"
       id="path-effect3793-3"
       is_visible="true" />
    <marker
       inkscape:stockid="Arrow1Mend"
       orient="auto"
       refY="0"
       refX="0"
       id="Arrow1Mend-5"
       style="overflow:visible">
      <path
         id="path3832-1"
         d="M 0,0 5,-5 -12.5,0 5,5 0,0 z"
         style="fill-rule:evenodd;stroke:#000000;stroke-width:1pt"
         transform="matrix(-0.4,0,0,-0.4,-4,0)"
         inkscape:connector-curvature="0" />
    </marker>
    <inkscape:path-effect
       effect="spiro"
       id="path-effect3793-3-8"
       is_visible="true" />
    <marker
       inkscape:stockid="Arrow1Mend"
       orient="auto"
       refY="0"
       refX="0"
       id="Arrow1Mend-6"
       style="overflow:visible">
      <path
         id="path3832-9"
         d="M 0,0 5,-5 -12.5,0 5,5 0,0 z"
         style="fill-rule:evenodd;stroke:#000000;stroke-width:1pt"
         transform="matrix(-0.4,0,0,-0.4,-4,0)"
         inkscape:connector-curvature="0" />
    </marker>
    <inkscape:path-effect
       effect="spiro"
       id="path-effect3793-3-8-8"
       is_visible="true" />
    <marker
       inkscape:stockid="Arrow1Mend"
       orient="auto"
       refY="0"
       refX="0"
       id="Arrow1Mend-9"
       style="overflow:visible">
      <path
         id="path3832-14"
         d="M 0,0 5,-5 -12.5,0 5,5 0,0 z"
         style="fill-rule:evenodd;stroke:#000000;stroke-width:1pt"
         transform="matrix(-0.4,0,0,-0.4,-4,0)"
         inkscape:connector-curvature="0" />
    </marker>
    <inkscape:path-effect
       effect="spiro"
       id="path-effect3793-3-8-9"
       is_visible="true" />
    <marker
       inkscape:stockid="Arrow1Mend"
       orient="auto"
       refY="0"
       refX="0"
       id="Arrow1Mend-4"
       style="overflow:visible">
      <path
         id="path3832-7"
         d="M 0,0 5,-5 -12.5,0 5,5 0,0 z"
         style="fill-rule:evenodd;stroke:#000000;stroke-width:1pt"
         transform="matrix(-0.4,0,0,-0.4,-4,0)"
         inkscape:connector-curvature="0" />
    </marker>
    <inkscape:path-effect
       effect="spiro"
       id="path-effect3793-3-8-9-6"
       is_visible="true" />
  </defs>
  <sodipodi:namedview
     id="base"
     pagecolor="#ffffff"
     bordercolor="#666666"
     borderopacity="1.0"
     inkscape:pageopacity="0.0"
     inkscape:pageshadow="2"
     inkscape:zoom="1.979899"
     inkscape:cx="205.53543"
     inkscape:cy="144.53427"
     inkscape:document-units="px"
     inkscape:current-layer="layer1"
     showgrid="true"
     fit-margin-top="20"
     fit-margin-left="20"
     fit-margin-right="20"
     fit-margin-bottom="20"
     inkscape:window-width="1914"
     inkscape:window-height="1060"
     inkscape:window-x="0"
     inkscape:window-y="14"
     inkscape:window-maximized="0"
     inkscape:snap-to-guides="false"
     inkscape:snap-bbox="true">
    <inkscape:grid
       type="xygrid"
       id="grid7185"
       empspacing="5"
       visible="true"
       enabled="true"
       snapvisiblegridlinesonly="true" />
  </sodipodi:namedview>
  <metadata
     id="metadata7">
    <rdf:RDF>
      <cc:Work
         rdf:about="">
        <dc:format>image/svg+xml</dc:format>
        <dc:type
           rdf:resource="http://purl.org/dc/dcmitype/StillImage" />
        <dc:title></dc:title>
      </cc:Work>
    </rdf:RDF>
  </metadata>
  <g
     inkscape:label="Layer 1"
     inkscape:groupmode="layer"
     id="layer1"
     transform="translate(-35.897321,-672.01743)">
    <path
       sodipodi:type="arc"
       style="color:#000000;fill:none;stroke:#000000;stroke-width:2.5;stroke-linecap:butt;stroke-linejoin:miter;stroke-miterlimit:4;stroke-opacity:1;stroke-dasharray:none;stroke-dashoffset:0;marker:none;visibility:visible;display:inline;overflow:visible;enable-background:accumulate"
       id="path2985"
       sodipodi:cx="127.5"
       sodipodi:cy="83.571426"
       sodipodi:rx="96.785713"
       sodipodi:ry="50.714287"
       d="m 224.28571,83.571426 a 96.785713,50.714287 0 1 1 -193.571423,0 96.785713,50.714287 0 1 1 193.571423,0 z"
       transform="matrix(1.3632133,0,0,1.3632133,16.087625,683.09175)" />
    <path
       sodipodi:type="arc"
       style="color:#000000;fill:none;stroke:#000000;stroke-width:2.5;stroke-linecap:butt;stroke-linejoin:miter;stroke-miterlimit:4;stroke-opacity:1;stroke-dasharray:none;stroke-dashoffset:0;marker:none;visibility:visible;display:inline;overflow:visible;enable-background:accumulate"
       id="path3755"
       sodipodi:cx="91.25"
       sodipodi:cy="77.678574"
       sodipodi:rx="10.535714"
       sodipodi:ry="10.535714"
       d="m 101.78571,77.678574 a 10.535714,10.535714 0 1 1 -21.071424,0 10.535714,10.535714 0 1 1 21.071424,0 z"
       transform="matrix(1.3632133,0,0,1.3632133,1.5041074,691.12497)" />
    <path
       sodipodi:type="arc"
       style="color:#000000;fill:none;stroke:#000000;stroke-width:2.5;stroke-linecap:butt;stroke-linejoin:miter;stroke-miterlimit:4;stroke-opacity:1;stroke-dasharray:none;stroke-dashoffset:0;marker:none;visibility:visible;display:inline;overflow:visible;enable-background:accumulate"
       id="path3755-7-9"
       sodipodi:cx="91.25"
       sodipodi:cy="77.678574"
       sodipodi:rx="10.535714"
       sodipodi:ry="10.535714"
       d="m 101.78571,77.678574 a 10.535714,10.535714 0 1 1 -21.071424,0 10.535714,10.535714 0 1 1 21.071424,0 z"
       transform="matrix(1.3632133,0,0,1.3632133,131.50411,691.12497)" />
    <path
       style="fill:none;stroke:#000000;stroke-width:1.3632133px;stroke-linecap:butt;stroke-linejoin:miter;stroke-opacity:1;marker-end:url(#Arrow1Mend)"
       inkscape:path-effect="#path-effect3793-3-8"
       inkscape:original-d="m 140.89732,782.01743 c 9.68119,-13.60798 35.35653,-7.71374 50,-10 28.21457,-5.8513 395.29265,-96.11053 45,10"
       id="path3791-6"
       d="m 140.89732,782.01743 c 15.67127,-6.92452 32.87093,-10.36445 50,-10 15.46265,0.32899 30.85332,3.74914 45,10"
       inkscape:connector-curvature="0"
       sodipodi:nodetypes="ccc" />
    <path
       style="fill:none;stroke:#000000;stroke-width:1.3632133px;stroke-linecap:butt;stroke-linejoin:miter;stroke-opacity:1;marker-end:url(#Arrow1Mend)"
       inkscape:path-effect="#path-effect3793-3-8-8"
       inkscape:original-d="m 236.80343,812.01743 c -9.68119,13.60798 -35.35653,7.71374 -50,10 -28.21457,5.8513 -395.29265,96.11053 -45,-10"
       id="path3791-6-7"
       d="m 236.80343,812.01743 c -15.67127,6.92452 -32.87093,10.36445 -50,10 -15.46265,-0.32899 -30.85332,-3.74914 -45,-10"
       inkscape:connector-curvature="0"
       sodipodi:nodetypes="ccc" />
    <path
       style="fill:none;stroke:#000000;stroke-width:1.3632133px;stroke-linecap:butt;stroke-linejoin:miter;stroke-opacity:1;marker-end:url(#Arrow1Mend)"
       inkscape:path-effect="#path-effect3793-3-8-9"
       inkscape:original-d="m 105.89732,812.01743 c 9.68119,-13.60798 -44.643469,-12.71374 -29.999999,-15 28.214569,-5.8513 385.292649,-121.11053 34.999999,-15"
       id="path3791-6-1"
       d="m 105.89732,812.01743 c -2.85472,1.7 -6.140469,2.6695 -9.460792,2.79151 -3.320323,0.12201 -6.668365,-0.60371 -9.640157,-2.08961 -2.971792,-1.4859 -5.561197,-3.7289 -7.455782,-6.45836 -1.894585,-2.72947 -3.090437,-5.93976 -3.443268,-9.24354 -0.448566,-4.20021 0.483301,-8.53648 2.617833,-12.18158 2.134532,-3.6451 5.460299,-6.57952 9.342857,-8.24348 3.882557,-1.66395 8.301116,-2.04852 12.412769,-1.08036 4.11164,0.96817 7.89436,3.2839 10.62654,6.50542"
       inkscape:connector-curvature="0"
       sodipodi:nodetypes="ccc" />
    <path
       style="fill:none;stroke:#000000;stroke-width:1.3632133px;stroke-linecap:butt;stroke-linejoin:miter;stroke-opacity:1;marker-end:url(#Arrow1Mend)"
       inkscape:path-effect="#path-effect3793-3-8-9-6"
       inkscape:original-d="m 276.79637,782.71933 c -9.68119,13.60798 44.64347,12.71374 30,15 -28.21457,5.8513 -385.292648,121.11053 -35,15"
       id="path3791-6-1-8"
       d="m 276.79637,782.71933 c 2.85472,-1.7 6.14047,-2.6695 9.46079,-2.79151 3.32033,-0.12201 6.66837,0.60371 9.64016,2.08961 2.97179,1.4859 5.5612,3.7289 7.45578,6.45836 1.89459,2.72947 3.09044,5.93976 3.44327,9.24354 0.44857,4.20021 -0.4833,8.53648 -2.61783,12.18158 -2.13454,3.6451 -5.4603,6.57952 -9.34286,8.24348 -3.88256,1.66395 -8.30112,2.04852 -12.41276,1.08036 -4.11165,-0.96817 -7.89437,-3.2839 -10.62655,-6.50542"
       inkscape:connector-curvature="0"
       sodipodi:nodetypes="ccc" />
  </g>
</svg>
